<?xml version="1.0" standalone="no"?>
<!DOCTYPE svg PUBLIC "-//W3C//DTD SVG 20010904//EN" "http://www.w3.org/TR/2001/REC-SVG-20010904/DTD/svg10.dtd">
<!-- Created using Krita: https://krita.org -->
<svg xmlns="http://www.w3.org/2000/svg" 
    xmlns:xlink="http://www.w3.org/1999/xlink"
    xmlns:krita="http://krita.org/namespaces/svg/krita"
    xmlns:sodipodi="http://sodipodi.sourceforge.net/DTD/sodipodi-0.dtd"
    width="440.64pt"
    height="440.64pt"
    viewBox="0 0 440.64 440.64">
<defs/>
<path id="shape0" transform="matrix(0.719999976064645 0 0 0.719999976064645 10.5644558224107 71.0767719605695)" fill="#00e031" d="M549.16 393.429C629.77 396.496 545.863 577.983 496.127 465.553L120.653 463.432C90.0089 511.161 -72.3871 518.471 37.9216 423.127L73.984 121.9C211.852 64.2527 120.696 47.2288 194.899 20.0762L258.539 21.1368C263.173 -24.7352 473.449 1.49289 535.371 125.082Z"/><path id="shape1" transform="matrix(0.719999976064645 0 0 0.719999976064645 83.1568429369809 143.922053043175)" fill="#000000" d="M86.4509 8.92942L219.54 1.56314C253.858 1.56314 246.617 -3.55043 287.79 4.72011C315.314 12.9907 287.27 -9.86823 308.652 14.3034C320.027 23.7434 321.116 20.4335 323.053 42.6039C339.778 43.7277 352.017 53.5484 334.428 60.4934L321.916 75.226C345.51 79.889 296.147 88.191 308.266 104.164C320.384 120.237 255.94 92.0584 255.94 116.267C255.94 130.157 223.764 105.314 218.402 117.319C213.04 129.423 159.352 119.111 147.876 127.842C136.401 136.573 98.6733 123.735 80.7633 128.895C62.8533 134.054 44.0042 120.476 19.3377 120.476L0 64.7027ZM51.188 76.2783L88.7259 84.6969C104.813 84.6969 115.539 89.02 126.264 80.4876C136.988 71.9552 160.389 69.0014 160.389 53.1271C160.389 35.2685 158.666 24.5907 118.301 25.7666C108.649 18.524 108.095 27.8713 89.8634 27.8713L68.2507 55.2318ZM228.64 86.8015L257.078 85.7492C277.454 85.7492 274.362 86.1005 285.515 76.2783C296.776 66.5553 296.89 66.7764 296.89 48.9178C296.89 31.3569 267.308 36.3435 243.427 40.4992C219.547 32.027 222.284 55.2318 201.908 55.2318L201.908 80.4876Z"/>
</svg>
